<svg width="135" height="13" viewBox="0 0 135 13" fill="none" xmlns="http://www.w3.org/2000/svg">
<path d="M12.8321 0.432015V12H10.9361V4.52802C10.9361 4.22935 10.9521 3.90668 10.9841 3.56002L7.48809 10.128C7.32275 10.4427 7.06942 10.6 6.72809 10.6H6.42409C6.08275 10.6 5.82942 10.4427 5.66409 10.128L2.12809 3.53602C2.14409 3.71202 2.15742 3.88535 2.16809 4.05602C2.17875 4.22668 2.18409 4.38402 2.18409 4.52802V12H0.288086V0.432015H1.91209C2.00809 0.432015 2.09075 0.434682 2.16009 0.440016C2.22942 0.445349 2.29075 0.458682 2.34409 0.480016C2.40275 0.501349 2.45342 0.536016 2.49609 0.584016C2.54409 0.632016 2.58942 0.696015 2.63209 0.776015L6.09609 7.20002C6.18675 7.37068 6.26942 7.54668 6.34409 7.72802C6.42409 7.90935 6.50142 8.09602 6.57609 8.28802C6.65075 8.09068 6.72809 7.90135 6.80809 7.72002C6.88809 7.53335 6.97342 7.35468 7.06409 7.18402L10.4801 0.776015C10.5228 0.696015 10.5681 0.632016 10.6161 0.584016C10.6641 0.536016 10.7148 0.501349 10.7681 0.480016C10.8268 0.458682 10.8908 0.445349 10.9601 0.440016C11.0294 0.434682 11.1121 0.432015 11.2081 0.432015H12.8321Z" fill="black"/>
<path d="M29.5251 7.63202L28.1171 3.78402C28.0478 3.61335 27.9758 3.41068 27.9011 3.17602C27.8264 2.94135 27.7518 2.68802 27.6771 2.41602C27.6078 2.68802 27.5358 2.94402 27.4611 3.18402C27.3864 3.41868 27.3144 3.62402 27.2451 3.80002L25.8451 7.63202H29.5251ZM33.3251 12H31.6611C31.4744 12 31.3224 11.9547 31.2051 11.864C31.0878 11.768 30.9998 11.6507 30.9411 11.512L30.0771 9.15202H25.2851L24.4211 11.512C24.3784 11.6347 24.2958 11.7467 24.1731 11.848C24.0504 11.9493 23.8984 12 23.7171 12H22.0371L26.5891 0.432015H28.7811L33.3251 12Z" fill="black"/>
<path d="M52.2745 0.432015V12H51.1705C50.9998 12 50.8558 11.9733 50.7385 11.92C50.6265 11.8614 50.5171 11.7653 50.4105 11.632L44.3705 3.92002C44.4025 4.27202 44.4185 4.59735 44.4185 4.89602V12H42.5225V0.432015H43.6505C43.7411 0.432015 43.8185 0.437349 43.8825 0.448015C43.9518 0.453349 44.0105 0.469349 44.0585 0.496016C44.1118 0.517349 44.1625 0.552016 44.2105 0.600016C44.2585 0.642682 44.3118 0.701349 44.3705 0.776015L50.4345 8.52002C50.4185 8.33335 50.4051 8.14935 50.3945 7.96802C50.3838 7.78668 50.3785 7.61868 50.3785 7.46402V0.432015H52.2745Z" fill="black"/>
<path d="M65.0106 12H62.8506V0.432015H65.0106V12Z" fill="black"/>
<path d="M77.7606 2.14402V5.56802H82.0966V7.28802H77.7606V12H75.6006V0.432015H82.8966V2.14402H77.7606Z" fill="black"/>
<path d="M94.8231 2.14402V5.35202H98.8711V7.00802H94.8231V10.28H99.9591V12H92.6631V0.432015H99.9591V2.14402H94.8231Z" fill="black"/>
<path d="M116.026 2.53602C115.962 2.64802 115.893 2.73068 115.818 2.78402C115.749 2.83202 115.661 2.85602 115.554 2.85602C115.442 2.85602 115.32 2.81602 115.186 2.73602C115.058 2.65068 114.904 2.55735 114.722 2.45602C114.541 2.35468 114.328 2.26402 114.082 2.18402C113.842 2.09868 113.557 2.05602 113.226 2.05602C112.928 2.05602 112.666 2.09335 112.442 2.16802C112.218 2.23735 112.029 2.33602 111.874 2.46402C111.725 2.59202 111.613 2.74668 111.538 2.92802C111.464 3.10402 111.426 3.29868 111.426 3.51202C111.426 3.78402 111.501 4.01068 111.65 4.19202C111.805 4.37335 112.008 4.52802 112.258 4.65602C112.509 4.78402 112.794 4.89868 113.114 5.00002C113.434 5.10135 113.762 5.21068 114.098 5.32802C114.434 5.44002 114.762 5.57335 115.082 5.72802C115.402 5.87735 115.688 6.06935 115.938 6.30402C116.189 6.53335 116.389 6.81602 116.538 7.15202C116.693 7.48802 116.77 7.89602 116.77 8.37602C116.77 8.89868 116.68 9.38935 116.498 9.84802C116.322 10.3013 116.061 10.6987 115.714 11.04C115.373 11.376 114.954 11.6427 114.458 11.84C113.962 12.032 113.394 12.128 112.754 12.128C112.386 12.128 112.024 12.0907 111.666 12.016C111.309 11.9467 110.965 11.8453 110.634 11.712C110.309 11.5787 110.002 11.4187 109.714 11.232C109.426 11.0454 109.17 10.8373 108.946 10.608L109.578 9.57602C109.632 9.50135 109.701 9.44002 109.786 9.39202C109.872 9.33868 109.962 9.31202 110.058 9.31202C110.192 9.31202 110.336 9.36802 110.49 9.48002C110.645 9.58668 110.829 9.70668 111.042 9.84002C111.256 9.97335 111.504 10.096 111.786 10.208C112.074 10.3147 112.418 10.368 112.818 10.368C113.432 10.368 113.906 10.224 114.242 9.93602C114.578 9.64268 114.746 9.22402 114.746 8.68002C114.746 8.37602 114.669 8.12802 114.514 7.93602C114.365 7.74402 114.165 7.58402 113.914 7.45602C113.664 7.32268 113.378 7.21068 113.058 7.12002C112.738 7.02935 112.413 6.93068 112.082 6.82402C111.752 6.71735 111.426 6.58935 111.106 6.44002C110.786 6.29068 110.501 6.09602 110.25 5.85602C110 5.61602 109.797 5.31735 109.642 4.96002C109.493 4.59735 109.418 4.15202 109.418 3.62402C109.418 3.20268 109.501 2.79202 109.666 2.39202C109.837 1.99202 110.082 1.63735 110.402 1.32802C110.722 1.01868 111.117 0.770682 111.586 0.584016C112.056 0.397349 112.594 0.304016 113.202 0.304016C113.885 0.304016 114.514 0.410683 115.09 0.624016C115.666 0.837349 116.157 1.13602 116.562 1.52002L116.026 2.53602Z" fill="black"/>
<path d="M134.727 2.20002H131.239V12H129.087V2.20002H125.599V0.432015H134.727V2.20002Z" fill="black"/>
</svg>
